# xmcd CD database file
#
# Track frame offsets:
#	150
#	20246
#	38570
#	53655
#	72391
#	91425
#
# Disc length: 1511 seconds
#
# Revision: 16
# Processed by: cddbd v1.5.1PL0 Copyright (c) Steve Scherf et al.
# Submitted via: CDex 1.50
#
DISCID=4b05e506
DTITLE=Blue Trick - The Way of the Traveler
DYEAR=2000
DGENRE=Blues
TTITLE0=No One
TTITLE1=Rather Be Right
TTITLE2=We Don't Know
TTITLE3=Missing You
TTITLE4=The Other Woman Now
TTITLE5=Ring of Fire
EXTD=YEAR: 2000
EXTT0=
EXTT1=
EXTT2=
EXTT3=
EXTT4=
EXTT5=
PLAYORDER=
